HIERARCHY
ROOT pelvis
{
	OFFSET 0.000000 0.000000 0.000000
	CHANNELS 6 Xposition Yposition Zposition Zrotation Xrotation Yrotation
	JOINT lfemur
	{
		OFFSET 11.446000 0.000000 0.000000
		CHANNELS 3 Zrotation Xrotation Yrotation
		JOINT ltibia
		{
			OFFSET 0.000000 -42.030400 0.000000
			CHANNELS 3 Zrotation Xrotation Yrotation
			JOINT lfoot
			{
				OFFSET 0.000000 -39.930200 0.000000
				CHANNELS 3 Zrotation Xrotation Yrotation
				JOINT ltoes
				{
					OFFSET 0.000000 0.000000 11.775800
					CHANNELS 3 Zrotation Xrotation Yrotation
					End Site
					{
					    OFFSET 0.000000 0.000000 5.000000
					}
				}
			}
		}
	}
	JOINT rfemur
	{
		OFFSET -11.446000 0.000000 0.000000
		CHANNELS 3 Zrotation Xrotation Yrotation
		JOINT rtibia
		{
			OFFSET 0.000000 -42.030400 0.000000
			CHANNELS 3 Zrotation Xrotation Yrotation
			JOINT rfoot
			{
				OFFSET 0.000000 -39.930200 0.000000
				CHANNELS 3 Zrotation Xrotation Yrotation
				JOINT rtoes
				{
					OFFSET 0.000000 0.000000 11.775800
					CHANNELS 3 Zrotation Xrotation Yrotation
					End Site
					{
					    OFFSET 0.000000 0.000000 5.000000
					}
				}
			}
		}
	}
	JOINT thorax
	{
		OFFSET 0.000000 11.255600 -5.000000
		CHANNELS 3 Zrotation Xrotation Yrotation
		JOINT head
		{
			OFFSET 0.000000 43.799300 0.000000
			CHANNELS 3 Zrotation Xrotation Yrotation
			End Site
			{
			    OFFSET 0.000000 5.000000 0.000000
			}
		}
		JOINT lclavicle
		{
			OFFSET 0.000000 39.863000 0.000000
			CHANNELS 3 Zrotation Xrotation Yrotation
			JOINT lhumerus
			{
				OFFSET 17.380600 4.958300 0.000000
				CHANNELS 3 Zrotation Xrotation Yrotation
				JOINT lradius
				{
					OFFSET 0.000000 -27.561300 0.000000
					CHANNELS 3 Zrotation Xrotation Yrotation
					JOINT lhand
					{
						OFFSET 0.000000 -26.933000 0.000000
						CHANNELS 3 Zrotation Xrotation Yrotation
						End Site
						{
						    OFFSET 0.000000 -5.000000 0.000000
						}
					}
				}
			}
		}
		JOINT rclavicle
		{
			OFFSET 0.000000 39.863000 0.000000
			CHANNELS 3 Zrotation Xrotation Yrotation
			JOINT rhumerus
			{
				OFFSET -17.380600 4.958300 0.000000
				CHANNELS 3 Zrotation Xrotation Yrotation
				JOINT rradius
				{
					OFFSET 0.000000 -27.561300 0.000000
					CHANNELS 3 Zrotation Xrotation Yrotation
					JOINT rhand
					{
						OFFSET 0.000000 -26.933000 0.000000
						CHANNELS 3 Zrotation Xrotation Yrotation
						End Site
						{
						    OFFSET 0.000000 -5.000000 0.000000
						}
					}
				}
			}
		}
	}
}
MOTION
Frames:	18
Frame Time:	0.0333333
90.848600 73.015500 -5.082900 17.569856 -5.162183 -81.789096 -26.457605 -60.019426 -6.073233 -0.000000 58.626251 -0.000000 -0.000000 -1.091618 6.462423 -0.000000 -1.113001 0.000000 -6.542952 -42.558242 -15.690740 -180.000037 43.423109 -180.000037 -0.000000 -4.666389 -3.751575 -0.000000 -29.563162 -0.000000 -26.662277 20.952808 5.627677 3.344658 8.521755 17.679449 -18.402985 -0.000000 10.791439 52.823881 11.652442 46.123028 -0.000009 -76.305276 -23.152021 9.893002 -9.240925 0.000000 12.890126 -0.000000 -6.178454 -25.053969 21.232225 -0.959221 0.000000 -17.155997 40.717661 11.751297 -7.407761 -0.000000 
86.800100 73.303200 -6.329800 15.113556 -0.837215 -73.272233 -24.403611 -55.924137 -6.553911 -0.000000 61.273066 0.000000 -0.000000 -3.308290 1.422885 -0.000000 -1.112669 0.000000 -10.371497 -60.625449 -17.973843 180.000037 40.928683 -180.000037 -0.000000 -6.290427 -4.083766 -0.000000 -29.545926 -0.000000 -23.224924 22.943777 2.270321 3.984402 7.241860 15.839481 -13.553937 -0.000000 5.794554 50.284614 9.244126 41.423231 -0.000012 -82.483961 -21.003566 13.222660 -8.036254 0.000000 13.885981 0.000000 -4.753515 -26.001703 20.144376 -12.467513 -0.000001 -24.406476 28.365859 6.989933 -5.787213 0.000000 
82.217900 75.342200 -7.224300 10.077934 5.334161 -66.729471 -18.021837 -50.128923 -8.499794 -0.000000 61.782195 -0.000000 -0.000000 -4.421012 -0.602961 -0.000000 -1.135245 -0.000000 -20.753516 -73.691834 -27.070197 -180.000037 50.270935 -180.000037 0.000000 -6.937836 -4.524293 0.000000 -29.541479 0.000000 -16.251567 23.592086 1.078641 5.234221 7.417228 15.366483 -9.244559 -0.000000 0.984536 48.884638 8.664174 39.982594 -0.000017 -81.394395 -19.249959 9.136389 -7.602831 -0.000000 14.373061 0.000000 -4.893536 -32.703465 17.328330 -11.824275 0.000001 -40.934050 27.113351 2.593169 -4.300981 0.000000 
77.805300 79.451500 -7.374300 4.334840 11.399208 -63.773819 -8.986523 -42.404606 -10.173310 -0.000000 57.471464 -0.000000 -0.000000 -3.558608 -0.051443 -0.000000 -1.190130 -0.000000 -38.513657 -80.327245 -45.526383 -180.000037 63.190364 -180.000037 0.000000 -6.430733 -5.685245 0.000000 -29.535715 -0.000000 -8.555687 22.032780 2.037874 5.672939 9.302982 15.962332 -6.084004 -0.000000 -1.046590 46.290878 8.721309 47.502544 0.000001 -68.876519 -12.703474 -6.997110 -8.862846 -0.000000 13.626244 -0.000000 -4.478774 -43.726458 6.991171 -7.357102 0.000001 -47.927650 30.022162 4.613355 -4.974868 0.000000 
74.172400 85.505500 -6.924000 0.675838 16.836332 -63.007454 -0.226571 -33.080194 -11.523087 0.000000 45.497044 0.000000 0.000000 1.937107 1.556428 0.000000 -1.235836 0.000000 -72.718456 -82.309723 -82.090878 -180.000037 74.298316 -180.000037 0.000000 -7.775787 -12.893438 -0.000000 -29.520558 0.000000 -1.465590 19.506356 2.783022 5.164264 10.906360 17.116682 -4.287175 -0.000000 -0.498809 46.204217 13.320728 53.266114 -0.000000 -52.328216 -10.007202 -6.014609 -8.083877 -0.000000 13.120017 -0.000000 -1.728580 -58.084252 -8.631194 -1.852578 -0.000002 -45.400818 35.620849 7.842333 -6.052594 -0.000000 
71.281100 92.885700 -6.106400 -0.821010 21.002914 -62.331450 6.376589 -23.332232 -14.744383 -0.000000 27.685165 -0.000000 0.000000 18.342804 3.458730 -0.000000 -1.298023 -0.000000 -103.281069 -80.354629 -111.207088 -180.000037 83.645972 -180.000037 0.000000 -9.480229 -19.919623 -0.000000 -29.499521 -0.000000 4.939230 17.636419 3.614559 3.895486 12.521688 17.912452 -3.246677 0.000000 0.941021 47.422890 20.462916 55.530436 0.000000 -36.194683 -14.008414 -8.787676 -8.310751 -0.000000 10.733036 -0.000000 2.973373 -73.245911 -26.005247 0.665463 0.000000 -31.295377 42.439253 9.530613 -6.618165 0.000000 
69.389400 100.255000 -5.216300 -0.368102 22.258706 -60.830084 8.163826 -21.843504 -6.282620 -0.000000 19.429275 -0.000000 -0.000000 39.861205 -0.342907 -0.000000 -1.648346 0.000000 -115.161225 -77.321587 -113.273554 0.000000 81.899757 -0.000000 -0.000000 -9.058051 -23.149710 -0.000000 -29.481763 -0.000000 8.692465 16.472170 6.340675 4.050634 14.242086 16.958678 -2.168227 0.000000 3.415251 48.433526 27.158643 53.911179 -0.000001 -27.563258 -20.343360 -13.274951 -9.781348 0.000000 6.908843 -0.000000 6.442735 -89.268167 -40.747313 -4.073132 -0.000001 -11.107897 54.077288 11.235491 -7.174630 0.000000 
68.434700 106.862500 -4.210300 -0.445148 21.491469 -55.672261 3.326635 -27.500351 -1.999437 -0.000000 32.046762 0.000000 -0.000001 43.277189 -7.793074 0.000000 -1.683460 0.000000 -87.655653 -71.935557 -70.097301 0.000000 51.413382 0.000000 0.000000 0.744657 -21.117390 -0.000000 -29.505699 -0.000000 12.861322 17.899070 9.226079 5.503440 14.130129 13.190535 -1.999793 0.000000 6.599775 49.739645 31.374833 53.542437 0.000000 -25.935751 -22.316944 -11.056273 -9.151668 0.000000 6.863519 0.000000 2.363998 -118.136468 -52.879466 7.607078 0.000000 1.809682 40.990590 11.505742 -7.233295 0.000000 
66.768700 112.025700 -2.458200 -2.956926 18.076699 -45.676800 -5.680329 -33.341817 -3.493982 0.000000 55.081362 -0.000000 -0.000000 41.059674 -6.214131 -0.000000 -1.736120 -0.000000 -67.328553 -51.759609 -35.758136 0.000000 14.441101 -0.000000 -0.000000 2.977242 -18.920798 0.000000 -29.492275 -0.000000 16.819077 20.777298 11.015246 13.017380 12.852636 5.958438 3.020316 -0.000000 7.284007 48.086715 36.669000 53.897938 0.000000 -28.060333 -21.809678 -12.735491 -9.915806 0.000000 9.038688 -0.000000 1.636653 -135.937807 -48.392953 -19.247358 0.000000 -3.085817 58.819940 12.822683 -7.660325 -0.000000 
64.224600 115.677500 -1.115500 -3.822299 14.573118 -34.953799 -15.837060 -39.469845 -4.013989 -0.000000 75.696550 -0.000000 0.000000 37.566346 -9.784482 -0.000000 -1.828918 -0.000000 -71.065172 -37.984686 -42.176591 0.000000 11.692537 -0.000000 -0.000000 2.415010 -9.081473 -0.000000 -29.517396 -0.000000 16.966764 20.498937 12.804557 26.088908 9.521697 -0.016234 10.025073 -0.000000 8.699847 49.637508 41.274902 56.068193 -0.000001 -29.866852 -26.412739 -15.524105 -11.530714 0.000000 9.321622 -0.000000 -0.225903 -131.930033 -48.878339 -16.254269 0.000000 -0.925407 38.208769 11.259264 -7.152461 0.000000 
61.596500 118.480000 -0.977600 -4.999892 13.429184 -28.646363 -23.045379 -47.893217 -0.567680 -180.000037 86.616982 -180.000037 0.000000 31.622424 -14.802267 -0.000000 -1.849505 -0.000000 -73.534679 -33.737158 -47.570205 0.000000 27.248456 -0.000000 -0.000000 -0.865572 -15.686428 0.000000 -29.488190 -0.000000 16.526158 19.200075 17.283434 36.271415 5.522587 -3.739268 12.228207 -0.000000 9.623274 58.590252 44.724687 62.103205 -0.000000 -26.898225 -19.469794 -12.943082 -10.755188 -0.000000 11.237421 0.000000 3.852922 -118.492383 -43.405187 -13.474431 0.000000 -3.260486 44.766754 13.085680 -7.766980 -0.000000 
58.485800 120.431600 -1.148900 -5.131926 12.394779 -21.581457 -33.913489 -54.731888 1.512748 180.000037 75.733442 180.000037 -0.000000 28.725149 -14.437194 0.000000 -1.822081 -0.000000 -74.714336 -29.847723 -43.473372 0.000000 43.574171 0.000000 0.000000 -1.459394 -13.283910 -0.000000 -29.478802 -0.000000 14.871265 18.181698 20.069851 39.441024 3.261259 -2.493696 16.478984 -0.000000 8.442304 61.632630 45.885592 81.815878 -0.000000 -20.684917 -24.366846 5.748108 -3.798715 0.000000 13.713552 -0.000000 6.618004 -106.586808 -36.959152 -11.250248 -0.000000 -4.971688 48.517155 6.627845 -5.586875 -0.000000 
55.157700 121.883900 -1.007000 -7.547912 11.383220 -11.505246 -45.654924 -56.179594 -2.836523 -180.000037 73.956062 -180.000037 0.000000 26.563386 -14.104605 -0.000000 -1.794904 -0.000000 -64.957721 -17.899890 -28.887775 0.000000 34.110952 0.000000 0.000000 -0.348372 -12.458198 -0.000000 -29.481377 -0.000000 16.827769 17.519388 20.046663 39.877222 0.623742 -4.601831 18.702445 -0.000000 6.892767 60.654150 46.241374 96.036965 -0.000000 -18.594391 -30.706061 5.749193 -3.798239 0.000000 15.559290 0.000000 9.706681 -94.753846 -25.178648 -15.590536 -0.000000 -8.968993 54.920819 7.815507 -5.994684 0.000000 
51.355800 122.721600 -0.574300 -8.117217 11.006092 -1.489787 -55.292010 -54.164948 -12.251622 180.000037 79.654292 180.000037 -0.000000 22.833507 -10.817464 -0.000000 -1.702501 0.000000 -57.354108 -4.007111 -18.085274 0.000000 19.477407 -0.000000 -0.000000 4.646342 -15.662773 -0.000000 -29.489969 -0.000000 16.115816 16.087448 20.713239 37.622300 2.045618 1.563121 16.060108 -0.000000 9.346613 58.471746 39.781652 81.037353 -0.000001 -19.251151 -49.574549 5.744618 -3.800245 0.000000 16.920091 0.000000 12.472186 -82.133736 -9.171935 -22.523347 -0.000000 -14.837680 60.989588 9.320319 -6.523285 0.000000 
46.416000 122.846300 -0.123500 -10.900520 11.169603 9.483277 -52.345212 -50.529692 -16.967166 0.000000 89.226092 0.000000 -0.000000 20.850325 -3.257553 -0.000000 -1.620952 0.000000 -48.382774 4.157601 -17.692144 -0.000000 20.512761 -0.000000 0.000000 7.318460 -12.974070 -0.000000 -29.497636 0.000000 16.582757 14.773514 20.805714 34.019821 1.878410 3.605916 12.624485 0.000000 10.010197 59.476482 33.029837 79.780377 0.000001 -23.366201 -45.580880 5.744077 -3.800479 0.000000 21.723934 0.000000 13.228159 -76.671364 3.325064 -16.975526 0.000001 -18.576514 52.748317 5.258715 -5.164190 0.000000 
40.620000 122.122100 1.396900 -15.979509 8.643125 22.700165 -37.118557 -42.726191 -12.538984 -0.000000 70.504287 -0.000000 -0.000000 24.577062 -0.206412 -0.000000 -1.540743 0.000000 -33.729457 13.714633 -19.525675 -0.000000 22.803445 -0.000000 0.000000 8.630995 -11.365847 -0.000000 -29.504893 -0.000000 18.975415 14.208484 17.958881 31.403947 0.227102 0.581802 9.591067 -0.000000 9.999582 63.015014 27.350759 83.936520 -0.000001 -23.576173 -55.574223 5.744667 -3.800222 -0.000000 26.506146 0.000000 12.098302 -70.922811 11.819546 -13.340014 -0.000001 -24.134881 44.666621 2.064507 -4.096276 0.000000 
34.748600 119.742500 4.075400 -19.561832 4.469254 35.490223 -20.523109 -32.155696 -2.567733 -0.000000 46.563069 -0.000000 -0.000000 32.082464 -1.500896 -0.000000 -1.536928 -0.000000 -18.869310 20.967520 -26.651238 -0.000000 26.639535 -0.000000 -0.000000 9.288643 -12.969836 0.000000 -29.521078 -0.000000 19.559178 12.695958 15.398776 28.651400 6.416056 6.910998 9.785802 -0.000000 7.791809 66.540675 26.780066 87.766193 -0.000000 -36.060326 0.402556 5.749240 -3.798225 0.000000 29.485816 -0.000000 7.928323 -62.148174 16.885120 -11.245277 -0.000000 -30.350156 39.075911 -0.597976 -3.201012 -0.000000 
29.452600 115.610300 7.362100 -22.205275 1.301825 45.949030 -6.740299 -25.233968 11.116219 -0.000000 28.148313 0.000000 -0.000000 32.630531 0.217799 -0.000000 -1.538467 -0.000000 -6.729041 22.870869 -33.592246 0.000000 32.156882 0.000000 0.000000 7.085955 -13.710171 0.000000 -29.528820 -0.000000 19.091566 10.444990 12.257429 23.653765 11.694212 8.891335 6.745121 -0.000000 7.491498 72.029147 28.116829 80.024908 0.000000 -41.584783 -1.578854 5.747831 -3.798840 -0.000000 28.097675 -0.000000 4.497971 -50.006863 21.238482 -10.820492 0.000001 -40.018105 35.758023 -0.638757 -3.189925 0.000000 
